<svg width="867" height="350" viewBox="0 0 867 350" fill="none" xmlns="http://www.w3.org/2000/svg">
<path d="M4.91011 84.791C6.03313 84.6113 6.93155 84.1621 7.60536 83.4434C8.27918 82.7247 8.79576 81.7589 9.15513 80.546C9.55942 79.2882 9.80648 77.7834 9.89633 76.0315C10.0311 74.2346 10.0985 72.1907 10.0985 69.8998V33.3791C10.0985 31.0881 10.0311 29.0667 9.89633 27.3148C9.80648 25.518 9.55942 23.9906 9.15513 22.7329C8.79576 21.4751 8.27918 20.5093 7.60536 19.8355C6.93155 19.1167 6.03313 18.6675 4.91011 18.4878V17.9488H30.1781C31.4359 17.9488 32.8509 18.0611 34.4231 18.2857C35.9953 18.4654 37.59 18.8247 39.2072 19.3638C40.8693 19.9028 42.4639 20.6665 43.9913 21.6548C45.5635 22.5981 46.956 23.8334 48.1689 25.3607C49.4267 26.888 50.4149 28.7523 51.1337 30.9534C51.8973 33.1545 52.2792 35.7374 52.2792 38.7022C52.2792 41.3975 51.8749 43.8232 51.0663 45.9794C50.3026 48.0907 49.2695 49.9549 47.9668 51.5721C46.709 53.1892 45.249 54.5593 43.587 55.6823C41.9249 56.8053 40.1954 57.7262 38.3986 58.4449C36.6467 59.1637 34.9172 59.6803 33.2103 59.9947C31.5033 60.3092 29.931 60.4664 28.4936 60.4664H18.319V69.8998C18.319 72.1907 18.3639 74.2346 18.4538 76.0315C18.5885 77.7834 18.8356 79.2882 19.1949 80.546C19.5992 81.7589 20.1383 82.7247 20.8121 83.4434C21.4859 84.1621 22.3843 84.6113 23.5073 84.791V85.3301H4.91011V84.791ZM25.5288 58.4449C29.0775 58.4449 32.0423 57.8385 34.4231 56.6256C36.8488 55.3679 38.8029 53.7732 40.2853 51.8416C41.7677 49.91 42.8233 47.7987 43.4522 45.5077C44.0811 43.2168 44.3955 40.9932 44.3955 38.837C44.3955 36.6808 44.0811 34.5021 43.4522 32.301C42.8233 30.055 41.7677 28.0335 40.2853 26.2367C38.8029 24.3949 36.8488 22.8901 34.4231 21.7221C32.0423 20.5542 29.1 19.9702 25.5962 19.9702H18.2516V51.6394V58.4449H25.5288ZM54.9828 85.3301V84.791C56.3305 84.5664 57.5658 84.0274 58.6888 83.1739C59.8118 82.2755 60.8675 81.0401 61.8557 79.4679C62.844 77.8508 63.8098 75.9192 64.7531 73.6731C65.6965 71.4271 66.7072 68.8217 67.7853 65.8569C68.3692 64.2397 69.0655 62.2857 69.8741 59.9947C70.7276 57.7037 71.6485 55.2556 72.6367 52.6502C73.625 50.0447 74.6357 47.3495 75.6689 44.5644C76.7021 41.7793 77.7128 39.0391 78.701 36.3439C81.0369 30.0999 83.5076 23.519 86.113 16.6012H86.652C89.3024 23.519 91.8404 30.0999 94.2661 36.3439C95.2993 39.0391 96.3325 41.7793 97.3657 44.5644C98.4438 47.3495 99.4769 50.0672 100.465 52.7175C101.453 55.3229 102.374 57.7711 103.228 60.0621C104.081 62.3081 104.8 64.2397 105.384 65.8569C106.552 69.0463 107.608 71.7864 108.551 74.0774C109.494 76.3684 110.438 78.2775 111.381 79.8048C112.324 81.3321 113.313 82.5001 114.346 83.3086C115.379 84.1172 116.524 84.6113 117.782 84.791V85.3301H96.6919V84.791C98.6684 84.7461 99.9037 84.1172 100.398 82.9044C100.937 81.6915 101.027 80.1866 100.667 78.3898C100.308 76.548 99.6791 74.5491 98.7807 72.3929C97.8823 70.2367 97.0063 68.1478 96.1528 66.1264C96.1079 66.0366 96.0854 65.9916 96.0854 65.9916C96.0854 65.9467 96.063 65.8793 96.018 65.7895L95.7485 65.1157C95.7036 65.0258 95.6811 64.9809 95.6811 64.9809C95.6811 64.936 95.6587 64.8686 95.6137 64.7788H70.6153L70.1436 66.059C69.38 68.1254 68.8185 70.2367 68.4591 72.3929C68.1446 74.5491 68.1446 76.5256 68.4591 78.3224C68.7735 80.1193 69.4473 81.6016 70.4805 82.7696C71.5137 83.9375 72.9961 84.544 74.9277 84.5889V85.3301H54.9828ZM94.8726 62.7573C94.648 62.2632 94.4458 61.7691 94.2661 61.275C94.0864 60.7808 93.9068 60.2867 93.7271 59.7926C92.5591 56.5583 91.3238 53.2341 90.0211 49.8201C88.7633 46.3612 87.5954 43.2168 86.5173 40.3868C85.2595 37.0626 84.0242 33.8059 82.8113 30.6165L71.3565 62.7573H94.8726ZM127.194 84.791C128.317 84.6113 129.215 84.1621 129.889 83.4434C130.563 82.7247 131.08 81.7589 131.439 80.546C131.843 79.2882 132.09 77.7834 132.18 76.0315C132.315 74.2346 132.382 72.1907 132.382 69.8998V33.3791C132.382 31.0881 132.315 29.0667 132.18 27.3148C132.09 25.518 131.843 23.9906 131.439 22.7329C131.08 21.4751 130.563 20.5093 129.889 19.8355C129.215 19.1167 128.317 18.6675 127.194 18.4878V17.9488H154.012C154.73 17.9488 155.741 17.9713 157.044 18.0162C158.347 18.0611 159.762 18.2183 161.289 18.4878C162.861 18.7574 164.456 19.1841 166.073 19.7681C167.735 20.3521 169.217 21.2056 170.52 22.3286C171.868 23.4067 172.968 24.7768 173.822 26.4388C174.675 28.1009 175.102 30.1673 175.102 32.6379C175.102 34.7941 174.585 36.8155 173.552 38.7022C172.519 40.544 171.037 42.1387 169.105 43.4863C167.218 44.8339 164.905 45.912 162.165 46.7206C159.47 47.4843 156.46 47.8661 153.136 47.8661C155.606 49.1239 157.695 50.8982 159.402 53.1892C161.154 55.4352 162.681 57.9284 163.984 60.6685C165.287 63.3638 166.455 66.1264 167.488 68.9564C168.521 71.7415 169.554 74.2795 170.588 76.5705C171.666 78.8166 172.834 80.6808 174.091 82.1632C175.349 83.6006 176.876 84.3194 178.673 84.3194V85.3301H169.577C168.139 85.3301 166.926 84.9483 165.938 84.1846C164.95 83.4209 164.052 82.3428 163.243 80.9503C162.479 79.5577 161.761 77.8957 161.087 75.9641C160.458 73.9876 159.739 71.8089 158.931 69.4281C158.122 67.0024 157.269 64.5317 156.37 62.0162C155.472 59.4557 154.438 57.1422 153.271 55.0759C152.103 52.9646 150.755 51.2351 149.228 49.8875C147.745 48.5399 145.993 47.8661 143.972 47.8661H140.535V51.6394C140.535 53.8855 140.535 55.5475 140.535 56.6256C140.535 57.7037 140.535 58.4899 140.535 58.984C140.535 59.4781 140.535 59.8375 140.535 60.0621C140.58 60.2867 140.603 60.7134 140.603 61.3423C140.603 61.9263 140.603 62.8696 140.603 64.1724C140.603 65.4301 140.603 67.3393 140.603 69.8998C140.603 72.1907 140.648 74.2346 140.738 76.0315C140.872 77.7834 141.119 79.2882 141.479 80.546C141.883 81.7589 142.422 82.7247 143.096 83.4434C143.77 84.1621 144.668 84.6113 145.791 84.791V85.3301H127.194V84.791ZM140.535 46.1142H151.721C153.967 46.1142 156.011 45.8222 157.852 45.2382C159.694 44.6542 161.266 43.8007 162.569 42.6777C163.872 41.5547 164.883 40.1622 165.601 38.5001C166.32 36.838 166.679 34.9289 166.679 32.7727C166.679 28.7298 165.399 25.5853 162.839 23.3393C160.323 21.0483 156.685 19.9028 151.923 19.9028H140.535V46.1142ZM186.742 85.3301V84.791C188.09 84.5664 189.325 84.0274 190.448 83.1739C191.571 82.2755 192.627 81.0401 193.615 79.4679C194.603 77.8508 195.569 75.9192 196.512 73.6731C197.456 71.4271 198.467 68.8217 199.545 65.8569C200.129 64.2397 200.825 62.2857 201.633 59.9947C202.487 57.7037 203.408 55.2556 204.396 52.6502C205.384 50.0447 206.395 47.3495 207.428 44.5644C208.461 41.7793 209.472 39.0391 210.46 36.3439C212.796 30.0999 215.267 23.519 217.872 16.6012H218.411C221.062 23.519 223.6 30.0999 226.025 36.3439C227.059 39.0391 228.092 41.7793 229.125 44.5644C230.203 47.3495 231.236 50.0672 232.225 52.7175C233.213 55.3229 234.134 57.7711 234.987 60.0621C235.841 62.3081 236.559 64.2397 237.143 65.8569C238.311 69.0463 239.367 71.7864 240.31 74.0774C241.254 76.3684 242.197 78.2775 243.14 79.8048C244.084 81.3321 245.072 82.5001 246.105 83.3086C247.138 84.1172 248.284 84.6113 249.542 84.791V85.3301H228.451V84.791C230.428 84.7461 231.663 84.1172 232.157 82.9044C232.696 81.6915 232.786 80.1866 232.427 78.3898C232.067 76.548 231.438 74.5491 230.54 72.3929C229.642 70.2367 228.766 68.1478 227.912 66.1264C227.867 66.0366 227.845 65.9916 227.845 65.9916C227.845 65.9467 227.822 65.8793 227.777 65.7895L227.508 65.1157C227.463 65.0258 227.441 64.9809 227.441 64.9809C227.441 64.936 227.418 64.8686 227.373 64.7788H202.375L201.903 66.059C201.139 68.1254 200.578 70.2367 200.218 72.3929C199.904 74.5491 199.904 76.5256 200.218 78.3224C200.533 80.1193 201.207 81.6016 202.24 82.7696C203.273 83.9375 204.755 84.544 206.687 84.5889V85.3301H186.742ZM226.632 62.7573C226.407 62.2632 226.205 61.7691 226.025 61.275C225.846 60.7808 225.666 60.2867 225.486 59.7926C224.319 56.5583 223.083 53.2341 221.78 49.8201C220.523 46.3612 219.355 43.2168 218.277 40.3868C217.019 37.0626 215.784 33.8059 214.571 30.6165L203.116 62.7573H226.632ZM258.953 84.791C260.076 84.6113 260.975 84.1621 261.649 83.4434C262.322 82.7247 262.839 81.7589 263.198 80.546C263.603 79.2882 263.85 77.7834 263.94 76.0315C264.074 74.2346 264.142 72.1907 264.142 69.8998V33.3791C264.142 31.0881 264.074 29.0667 263.94 27.3148C263.85 25.518 263.603 23.9906 263.198 22.7329C262.839 21.4751 262.322 20.5093 261.649 19.8355C260.975 19.1167 260.076 18.6675 258.953 18.4878V17.9488H276.203C280.426 17.9488 284.176 18.4654 287.456 19.4986C290.78 20.4868 293.677 21.8344 296.148 23.5414C298.618 25.2484 300.707 27.2249 302.414 29.471C304.166 31.717 305.581 34.0978 306.659 36.6134C307.737 39.129 308.501 41.6895 308.95 44.2949C309.444 46.8554 309.691 49.3035 309.691 51.6394C309.691 54.1101 309.444 56.6706 308.95 59.3209C308.501 61.9712 307.737 64.5542 306.659 67.0697C305.581 69.5404 304.166 71.8987 302.414 74.1448C300.707 76.3459 298.618 78.2775 296.148 79.9396C293.677 81.6016 290.78 82.9268 287.456 83.9151C284.176 84.8584 280.426 85.3301 276.203 85.3301H258.953V84.791ZM274.114 19.9028H272.362V46.5185C272.362 49.9774 272.362 53.4587 272.362 56.9626C272.362 60.4664 272.34 63.8354 272.295 67.0697C272.295 70.2591 272.295 73.2688 272.295 76.0988C272.295 78.8839 272.295 81.3097 272.295 83.376H274.114C277.708 83.376 280.875 82.8819 283.615 81.8936C286.355 80.8605 288.736 79.5128 290.757 77.8508C292.779 76.1887 294.463 74.2571 295.811 72.056C297.159 69.8548 298.237 67.5863 299.045 65.2505C299.899 62.9146 300.483 60.5787 300.797 58.2428C301.157 55.862 301.336 53.6609 301.336 51.6394C301.336 49.618 301.157 47.4393 300.797 45.1034C300.483 42.7226 299.899 40.3643 299.045 38.0284C298.237 35.6925 297.159 33.424 295.811 31.2229C294.463 29.0218 292.779 27.0902 290.757 25.4281C288.736 23.766 286.355 22.4409 283.615 21.4526C280.875 20.4194 277.708 19.9028 274.114 19.9028ZM323.155 84.791C324.278 84.6113 325.177 84.1621 325.85 83.4434C326.524 82.7247 327.041 81.7589 327.4 80.546C327.804 79.2882 328.051 77.7834 328.141 76.0315C328.276 74.2346 328.343 72.1907 328.343 69.8998V33.3791C328.343 31.0881 328.276 29.0667 328.141 27.3148C328.051 25.518 327.804 23.9906 327.4 22.7329C327.041 21.4751 326.524 20.5093 325.85 19.8355C325.177 19.1167 324.278 18.6675 323.155 18.4878V17.9488H341.752V18.4878C340.629 18.6675 339.731 19.1167 339.057 19.8355C338.383 20.5093 337.844 21.4751 337.44 22.7329C337.081 23.9906 336.834 25.518 336.699 27.3148C336.609 29.0667 336.564 31.0881 336.564 33.3791V69.8998C336.564 72.1907 336.609 74.2346 336.699 76.0315C336.834 77.7834 337.081 79.2882 337.44 80.546C337.844 81.7589 338.383 82.7247 339.057 83.4434C339.731 84.1621 340.629 84.6113 341.752 84.791V85.3301H323.155V84.791ZM355.227 67.474H356.103C357.001 70.0345 358.102 72.3929 359.405 74.5491C360.752 76.6604 362.324 78.4796 364.121 80.007C365.918 81.4893 367.94 82.6573 370.186 83.5108C372.477 84.3643 375.037 84.791 377.867 84.791C379.844 84.791 381.82 84.544 383.797 84.0498C385.773 83.5108 387.548 82.7471 389.12 81.7589C390.692 80.7257 391.95 79.4679 392.893 77.9855C393.881 76.5031 394.376 74.8186 394.376 72.9319C394.376 70.596 393.836 68.5297 392.758 66.7328C391.68 64.936 390.265 63.2964 388.513 61.814C386.761 60.3316 384.74 58.9615 382.449 57.7037C380.203 56.446 377.912 55.1882 375.576 53.9304C373.24 52.6726 370.927 51.3699 368.636 50.0223C366.39 48.6747 364.391 47.1698 362.639 45.5077C360.887 43.8457 359.472 41.9814 358.394 39.9151C357.316 37.8487 356.777 35.4679 356.777 32.7727C356.777 30.886 357.181 28.9769 357.99 27.0453C358.798 25.1137 360.078 23.3842 361.83 21.8569C363.627 20.2847 365.963 19.0269 368.838 18.0836C371.713 17.0953 375.239 16.6012 379.417 16.6012C381.438 16.6012 383.392 16.7135 385.279 16.9381C387.211 17.1178 389.007 17.3873 390.67 17.7466C392.332 18.0611 393.836 18.4429 395.184 18.8921C396.532 19.2964 397.677 19.7007 398.621 20.105V33.5812H398.081C396.734 30.7962 395.094 28.303 393.163 26.1019C392.354 25.1586 391.433 24.2602 390.4 23.4067C389.367 22.5083 388.221 21.7221 386.964 21.0483C385.751 20.3296 384.426 19.7681 382.988 19.3638C381.551 18.9146 380.023 18.69 378.406 18.69C376.475 18.69 374.588 18.9146 372.746 19.3638C370.949 19.813 369.332 20.4868 367.895 21.3852C366.502 22.2837 365.379 23.4516 364.526 24.8891C363.672 26.2816 363.245 27.9212 363.245 29.8079C363.245 31.7844 363.784 33.5812 364.863 35.1984C365.941 36.7706 367.356 38.2306 369.108 39.5782C370.859 40.9258 372.858 42.2061 375.104 43.4189C377.395 44.5869 379.709 45.7997 382.045 47.0575C384.381 48.2704 386.672 49.5731 388.918 50.9656C391.209 52.3132 393.23 53.8181 394.982 55.4802C396.734 57.1422 398.149 59.0065 399.227 61.0728C400.305 63.0943 400.844 65.4301 400.844 68.0805C400.844 71.0003 400.148 73.6057 398.755 75.8967C397.408 78.1877 395.611 80.1417 393.365 81.7589C391.164 83.3311 388.648 84.544 385.818 85.3975C383.033 86.251 380.181 86.6777 377.261 86.6777C375.104 86.6777 372.971 86.5429 370.859 86.2734C368.793 86.0488 366.794 85.6894 364.863 85.1953C362.976 84.7012 361.201 84.0498 359.539 83.2413C357.922 82.4327 356.485 81.4893 355.227 80.4112V67.474ZM414.315 84.791C415.438 84.6113 416.336 84.1621 417.01 83.4434C417.684 82.7247 418.2 81.7589 418.56 80.546C418.964 79.2882 419.211 77.7834 419.301 76.0315C419.436 74.2346 419.503 72.1907 419.503 69.8998V33.3791C419.503 31.0881 419.436 29.0667 419.301 27.3148C419.211 25.518 418.964 23.9906 418.56 22.7329C418.2 21.4751 417.684 20.5093 417.01 19.8355C416.336 19.1167 415.438 18.6675 414.315 18.4878V17.9488H453.8C454.294 17.9488 454.833 17.9263 455.417 17.8814C456.046 17.8365 456.653 17.7691 457.236 17.6793C457.82 17.5894 458.359 17.4547 458.854 17.275C459.348 17.0953 459.73 16.8707 459.999 16.6012H460.538V32.9748H459.999C459.73 31.178 459.258 29.4934 458.584 27.9212C457.955 26.349 457.057 24.9789 455.889 23.811C454.721 22.5981 453.283 21.6548 451.576 20.9809C449.914 20.3071 447.915 19.9702 445.58 19.9702H427.723V45.5077H437.359C440.054 45.5077 442.21 45.3281 443.828 44.9687C445.49 44.6093 446.792 44.1826 447.736 43.6884C448.814 43.1943 449.6 42.6103 450.094 41.9365H450.633V51.1004H450.094C449.6 50.4266 448.814 49.8201 447.736 49.2811C446.792 48.8319 445.49 48.4276 443.828 48.0682C442.21 47.7089 440.054 47.5292 437.359 47.5292H427.723C427.723 50.9432 427.723 54.3571 427.723 57.7711C427.723 61.1402 427.701 64.397 427.656 67.5414C427.656 70.641 427.656 73.5384 427.656 76.2336C427.656 78.9289 427.656 81.2872 427.656 83.3086H437.292C440.975 83.3086 444.165 83.0391 446.86 82.5001C449.555 81.9161 451.868 81.0851 453.8 80.007C455.777 78.9289 457.439 77.6037 458.786 76.0315C460.179 74.4143 461.392 72.5726 462.425 70.5062H462.964L457.91 86.6777H457.371C457.102 86.4082 456.697 86.1836 456.158 86.0039C455.664 85.8242 455.103 85.6894 454.474 85.5996C453.845 85.5098 453.216 85.4424 452.587 85.3975C451.958 85.3525 451.397 85.3301 450.903 85.3301H414.315V84.791ZM532.95 17.9488C533.669 17.9488 534.679 17.9713 535.982 18.0162C537.285 18.0611 538.7 18.2183 540.227 18.4878C541.799 18.7574 543.394 19.1841 545.011 19.7681C546.673 20.3521 548.156 21.2056 549.458 22.3286C550.806 23.4067 551.906 24.7768 552.76 26.4388C553.613 28.1009 554.04 30.1673 554.04 32.6379C554.04 34.3 553.658 35.8722 552.895 37.3546C552.176 38.837 551.165 40.2071 549.863 41.4649C548.56 42.7226 546.988 43.8232 545.146 44.7665C543.304 45.7099 541.283 46.4511 539.082 46.9901C541.373 47.3944 543.641 48.0008 545.887 48.8094C548.133 49.618 550.132 50.7635 551.884 52.2459C553.681 53.6833 555.118 55.4802 556.196 57.6364C557.319 59.7926 557.881 62.4204 557.881 65.52C557.881 69.3832 557.072 72.595 555.455 75.1555C553.883 77.716 551.951 79.7599 549.66 81.2872C547.369 82.7696 544.944 83.8252 542.383 84.4541C539.823 85.0381 537.577 85.3301 535.645 85.3301H506.132V84.791C507.255 84.6113 508.154 84.1621 508.827 83.4434C509.501 82.7247 510.018 81.7589 510.377 80.546C510.781 79.2882 511.028 77.7834 511.118 76.0315C511.253 74.2346 511.32 72.1907 511.32 69.8998V33.3791C511.32 31.0881 511.253 29.0667 511.118 27.3148C511.028 25.518 510.781 23.9906 510.377 22.7329C510.018 21.4751 509.501 20.5093 508.827 19.8355C508.154 19.1167 507.255 18.6675 506.132 18.4878V17.9488H532.95ZM519.474 48.1356V83.3086H529.985C536.139 83.3086 540.923 81.8487 544.337 78.9289C547.751 75.9641 549.458 71.4945 549.458 65.52C549.458 64.5317 549.391 63.4312 549.256 62.2183C549.121 61.0054 548.807 59.7701 548.313 58.5123C547.819 57.2096 547.1 55.9518 546.157 54.739C545.258 53.4812 544.045 52.3806 542.518 51.4373C540.991 50.449 539.082 49.6629 536.791 49.0789C534.545 48.495 531.849 48.1805 528.705 48.1356H519.474ZM530.659 46.1142C532.905 46.1142 534.949 45.8222 536.791 45.2382C538.632 44.6542 540.205 43.8007 541.507 42.6777C542.81 41.5547 543.821 40.1622 544.539 38.5001C545.258 36.838 545.618 34.9289 545.618 32.7727C545.618 28.7298 544.337 25.5853 541.777 23.3393C539.261 21.0483 535.623 19.9028 530.861 19.9028H519.474V46.1142H530.659ZM571.387 84.791C572.51 84.6113 573.408 84.1621 574.082 83.4434C574.756 82.7247 575.272 81.7589 575.632 80.546C576.036 79.2882 576.283 77.7834 576.373 76.0315C576.508 74.2346 576.575 72.1907 576.575 69.8998V33.3791C576.575 31.0881 576.508 29.0667 576.373 27.3148C576.283 25.518 576.036 23.9906 575.632 22.7329C575.272 21.4751 574.756 20.5093 574.082 19.8355C573.408 19.1167 572.51 18.6675 571.387 18.4878V17.9488H598.204C598.923 17.9488 599.934 17.9713 601.237 18.0162C602.539 18.0611 603.954 18.2183 605.482 18.4878C607.054 18.7574 608.648 19.1841 610.266 19.7681C611.928 20.3521 613.41 21.2056 614.713 22.3286C616.06 23.4067 617.161 24.7768 618.014 26.4388C618.868 28.1009 619.295 30.1673 619.295 32.6379C619.295 34.7941 618.778 36.8155 617.745 38.7022C616.712 40.544 615.229 42.1387 613.298 43.4863C611.411 44.8339 609.098 45.912 606.358 46.7206C603.662 47.4843 600.653 47.8661 597.328 47.8661C599.799 49.1239 601.888 50.8982 603.595 53.1892C605.347 55.4352 606.874 57.9284 608.177 60.6685C609.48 63.3638 610.647 66.1264 611.681 68.9564C612.714 71.7415 613.747 74.2795 614.78 76.5705C615.858 78.8166 617.026 80.6808 618.284 82.1632C619.542 83.6006 621.069 84.3194 622.866 84.3194V85.3301H613.769C612.332 85.3301 611.119 84.9483 610.131 84.1846C609.143 83.4209 608.244 82.3428 607.436 80.9503C606.672 79.5577 605.953 77.8957 605.279 75.9641C604.651 73.9876 603.932 71.8089 603.123 69.4281C602.315 67.0024 601.461 64.5317 600.563 62.0162C599.664 59.4557 598.631 57.1422 597.463 55.0759C596.295 52.9646 594.948 51.2351 593.42 49.8875C591.938 48.5399 590.186 47.8661 588.165 47.8661H584.728V51.6394C584.728 53.8855 584.728 55.5475 584.728 56.6256C584.728 57.7037 584.728 58.4899 584.728 58.984C584.728 59.4781 584.728 59.8375 584.728 60.0621C584.773 60.2867 584.796 60.7134 584.796 61.3423C584.796 61.9263 584.796 62.8696 584.796 64.1724C584.796 65.4301 584.796 67.3393 584.796 69.8998C584.796 72.1907 584.84 74.2346 584.93 76.0315C585.065 77.7834 585.312 79.2882 585.671 80.546C586.076 81.7589 586.615 82.7247 587.289 83.4434C587.962 84.1621 588.861 84.6113 589.984 84.791V85.3301H571.387V84.791ZM584.728 46.1142H595.913C598.159 46.1142 600.203 45.8222 602.045 45.2382C603.887 44.6542 605.459 43.8007 606.762 42.6777C608.065 41.5547 609.075 40.1622 609.794 38.5001C610.513 36.838 610.872 34.9289 610.872 32.7727C610.872 28.7298 609.592 25.5853 607.031 23.3393C604.516 21.0483 600.877 19.9028 596.116 19.9028H584.728V46.1142ZM632.956 84.791C634.079 84.6113 634.978 84.1621 635.652 83.4434C636.325 82.7247 636.842 81.7589 637.201 80.546C637.606 79.2882 637.853 77.7834 637.943 76.0315C638.077 74.2346 638.145 72.1907 638.145 69.8998V33.3791C638.145 31.0881 638.077 29.0667 637.943 27.3148C637.853 25.518 637.606 23.9906 637.201 22.7329C636.842 21.4751 636.325 20.5093 635.652 19.8355C634.978 19.1167 634.079 18.6675 632.956 18.4878V17.9488H672.442C672.936 17.9488 673.475 17.9263 674.059 17.8814C674.688 17.8365 675.294 17.7691 675.878 17.6793C676.462 17.5894 677.001 17.4547 677.495 17.275C677.99 17.0953 678.371 16.8707 678.641 16.6012H679.18V32.9748H678.641C678.371 31.178 677.9 29.4934 677.226 27.9212C676.597 26.349 675.699 24.9789 674.531 23.811C673.363 22.5981 671.925 21.6548 670.218 20.9809C668.556 20.3071 666.557 19.9702 664.221 19.9702H646.365V45.5077H656.001C658.696 45.5077 660.852 45.3281 662.469 44.9687C664.131 44.6093 665.434 44.1826 666.377 43.6884C667.456 43.1943 668.242 42.6103 668.736 41.9365H669.275V51.1004H668.736C668.242 50.4266 667.456 49.8201 666.377 49.2811C665.434 48.8319 664.131 48.4276 662.469 48.0682C660.852 47.7089 658.696 47.5292 656.001 47.5292H646.365C646.365 50.9432 646.365 54.3571 646.365 57.7711C646.365 61.1402 646.343 64.397 646.298 67.5414C646.298 70.641 646.298 73.5384 646.298 76.2336C646.298 78.9289 646.298 81.2872 646.298 83.3086H655.933C659.617 83.3086 662.806 83.0391 665.502 82.5001C668.197 81.9161 670.51 81.0851 672.442 80.007C674.418 78.9289 676.08 77.6037 677.428 76.0315C678.821 74.4143 680.033 72.5726 681.067 70.5062H681.606L676.552 86.6777H676.013C675.743 86.4082 675.339 86.1836 674.8 86.0039C674.306 85.8242 673.744 85.6894 673.116 85.5996C672.487 85.5098 671.858 85.4424 671.229 85.3975C670.6 85.3525 670.039 85.3301 669.544 85.3301H632.956V84.791ZM693.078 84.791C694.201 84.6113 695.1 84.1621 695.774 83.4434C696.447 82.7247 696.964 81.7589 697.323 80.546C697.728 79.2882 697.975 77.7834 698.065 76.0315C698.199 74.2346 698.267 72.1907 698.267 69.8998V33.3791C698.267 31.0881 698.199 29.0667 698.065 27.3148C697.975 25.518 697.728 23.9906 697.323 22.7329C696.964 21.4751 696.447 20.5093 695.774 19.8355C695.1 19.1167 694.201 18.6675 693.078 18.4878V17.9488H732.564C733.058 17.9488 733.597 17.9263 734.181 17.8814C734.81 17.8365 735.416 17.7691 736 17.6793C736.584 17.5894 737.123 17.4547 737.617 17.275C738.111 17.0953 738.493 16.8707 738.763 16.6012H739.302V32.9748H738.763C738.493 31.178 738.022 29.4934 737.348 27.9212C736.719 26.349 735.82 24.9789 734.653 23.811C733.485 22.5981 732.047 21.6548 730.34 20.9809C728.678 20.3071 726.679 19.9702 724.343 19.9702H706.487V45.5077H716.123C718.818 45.5077 720.974 45.3281 722.591 44.9687C724.253 44.6093 725.556 44.1826 726.499 43.6884C727.578 43.1943 728.364 42.6103 728.858 41.9365H729.397V51.1004H728.858C728.364 50.4266 727.578 49.8201 726.499 49.2811C725.556 48.8319 724.253 48.4276 722.591 48.0682C720.974 47.7089 718.818 47.5292 716.123 47.5292H706.487C706.487 50.9432 706.487 54.3571 706.487 57.7711C706.487 61.1402 706.465 64.397 706.42 67.5414C706.42 70.641 706.42 73.5384 706.42 76.2336C706.42 78.9289 706.42 81.2872 706.42 83.3086H716.055C719.739 83.3086 722.928 83.0391 725.623 82.5001C728.319 81.9161 730.632 81.0851 732.564 80.007C734.54 78.9289 736.202 77.6037 737.55 76.0315C738.942 74.4143 740.155 72.5726 741.189 70.5062H741.728L736.674 86.6777H736.135C735.865 86.4082 735.461 86.1836 734.922 86.0039C734.428 85.8242 733.866 85.6894 733.238 85.5996C732.609 85.5098 731.98 85.4424 731.351 85.3975C730.722 85.3525 730.16 85.3301 729.666 85.3301H693.078V84.791ZM791.945 19.9702H769.978C767.642 19.9702 765.621 20.3071 763.914 20.9809C762.252 21.6548 760.837 22.5981 759.669 23.811C758.501 24.9789 757.58 26.349 756.906 27.9212C756.277 29.4934 755.828 31.178 755.559 32.9748H755.02V16.6012H755.559C755.828 16.8707 756.21 17.0953 756.704 17.275C757.198 17.4547 757.737 17.5894 758.321 17.6793C758.905 17.7691 759.489 17.8365 760.073 17.8814C760.702 17.9263 761.264 17.9488 761.758 17.9488H802.86L764.184 83.3086H787.632C789.968 83.3086 791.967 82.9717 793.629 82.2979C795.336 81.6241 796.774 80.7032 797.942 79.5353C799.109 78.3224 800.008 76.9299 800.637 75.3576C801.311 73.7854 801.782 72.1009 802.052 70.3041H802.591V86.6777H802.052C801.782 86.4082 801.4 86.1836 800.906 86.0039C800.412 85.8242 799.873 85.6894 799.289 85.5996C798.705 85.5098 798.099 85.4424 797.47 85.3975C796.886 85.3525 796.347 85.3301 795.853 85.3301H753.2L791.945 19.9702ZM814.309 84.791C815.432 84.6113 816.331 84.1621 817.005 83.4434C817.678 82.7247 818.195 81.7589 818.554 80.546C818.959 79.2882 819.206 77.7834 819.296 76.0315C819.43 74.2346 819.498 72.1907 819.498 69.8998V33.3791C819.498 31.0881 819.43 29.0667 819.296 27.3148C819.206 25.518 818.959 23.9906 818.554 22.7329C818.195 21.4751 817.678 20.5093 817.005 19.8355C816.331 19.1167 815.432 18.6675 814.309 18.4878V17.9488H853.795C854.289 17.9488 854.828 17.9263 855.412 17.8814C856.041 17.8365 856.647 17.7691 857.231 17.6793C857.815 17.5894 858.354 17.4547 858.848 17.275C859.343 17.0953 859.724 16.8707 859.994 16.6012H860.533V32.9748H859.994C859.724 31.178 859.253 29.4934 858.579 27.9212C857.95 26.349 857.052 24.9789 855.884 23.811C854.716 22.5981 853.278 21.6548 851.571 20.9809C849.909 20.3071 847.91 19.9702 845.574 19.9702H827.718V45.5077H837.354C840.049 45.5077 842.205 45.3281 843.822 44.9687C845.484 44.6093 846.787 44.1826 847.73 43.6884C848.809 43.1943 849.595 42.6103 850.089 41.9365H850.628V51.1004H850.089C849.595 50.4266 848.809 49.8201 847.73 49.2811C846.787 48.8319 845.484 48.4276 843.822 48.0682C842.205 47.7089 840.049 47.5292 837.354 47.5292H827.718C827.718 50.9432 827.718 54.3571 827.718 57.7711C827.718 61.1402 827.696 64.397 827.651 67.5414C827.651 70.641 827.651 73.5384 827.651 76.2336C827.651 78.9289 827.651 81.2872 827.651 83.3086H837.286C840.97 83.3086 844.159 83.0391 846.855 82.5001C849.55 81.9161 851.863 81.0851 853.795 80.007C855.771 78.9289 857.433 77.6037 858.781 76.0315C860.174 74.4143 861.386 72.5726 862.42 70.5062H862.959L857.905 86.6777H857.366C857.096 86.4082 856.692 86.1836 856.153 86.0039C855.659 85.8242 855.098 85.6894 854.469 85.5996C853.84 85.5098 853.211 85.4424 852.582 85.3975C851.953 85.3525 851.392 85.3301 850.897 85.3301H814.309V84.791Z" fill="#2F7F86"/>
<path d="M271.631 165.828V143.094H280.436C282.071 143.094 283.439 143.345 284.539 143.848C285.64 144.341 286.463 145.054 287.008 145.987C287.553 146.909 287.825 148.015 287.825 149.304C287.825 150.541 287.605 151.568 287.165 152.386C286.735 153.203 286.185 153.863 285.514 154.367C284.843 154.859 284.146 155.242 283.423 155.514L287.888 165.828H284.807L280.656 156.033H274.54V165.828H271.631ZM274.54 153.628H279.493C281.201 153.628 282.522 153.282 283.455 152.59C284.387 151.888 284.854 150.85 284.854 149.477C284.854 148.135 284.435 147.134 283.596 146.474C282.768 145.803 281.631 145.468 280.184 145.468H274.54V153.628ZM292.597 165.828V143.094H306.936L306.92 145.656H295.522V153.077H305.788V155.624H295.506V163.203L307.235 163.234V165.828H292.597ZM311.967 165.828L311.982 143.094H314.954V163.218H325.692V165.828H311.967ZM328.563 165.828L336.786 143.094H340.072L348.294 165.828H345.323L343.09 159.602H333.767L331.519 165.828H328.563ZM334.537 156.929H342.288L338.421 145.939L334.537 156.929ZM351.31 165.828L359.014 154.225L351.577 143.094H355.162L360.822 151.757L366.435 143.094H369.642L362.378 153.926L370.35 165.828H366.749L360.586 156.458L354.517 165.828H351.31ZM381.69 170.891L381.674 139.855H383.954V170.891H381.69ZM396.952 165.828V143.094H404.64C406.265 143.094 407.711 143.366 408.979 143.911C410.248 144.456 411.243 145.263 411.966 146.332C412.7 147.402 413.067 148.717 413.067 150.279C413.067 151.788 412.726 153.077 412.045 154.146C411.374 155.216 410.436 156.028 409.231 156.583C408.025 157.139 406.626 157.417 405.033 157.417H399.939V165.828H396.952ZM399.923 154.964H404.97C406.532 154.964 407.8 154.529 408.775 153.659C409.75 152.789 410.237 151.605 410.237 150.106C410.237 148.596 409.734 147.454 408.728 146.678C407.721 145.903 406.422 145.515 404.829 145.515H399.923V154.964ZM416.659 165.828L416.674 143.094H419.646V163.218H430.384V165.828H416.659ZM433.255 165.828L441.478 143.094H444.764L452.986 165.828H450.015L447.782 159.602H438.459L436.211 165.828H433.255ZM439.229 156.929H446.981L443.113 145.939L439.229 156.929ZM459.755 165.828V156.143L452.004 143.094H455.179L461.217 153.549L467.16 143.094H470.351L462.648 156.159V165.828H459.755ZM480.394 170.891L480.378 139.855H482.658V170.891H480.394ZM495.656 165.828V143.094H504.46C506.095 143.094 507.463 143.345 508.564 143.848C509.664 144.341 510.487 145.054 511.032 145.987C511.577 146.909 511.85 148.015 511.85 149.304C511.85 150.541 511.63 151.568 511.189 152.386C510.76 153.203 510.209 153.863 509.539 154.367C508.868 154.859 508.171 155.242 507.448 155.514L511.913 165.828H508.831L504.68 156.033H498.564V165.828H495.656ZM498.564 153.628H503.517C505.225 153.628 506.546 153.282 507.479 152.59C508.412 151.888 508.878 150.85 508.878 149.477C508.878 148.135 508.459 147.134 507.62 146.474C506.792 145.803 505.655 145.468 504.209 145.468H498.564V153.628ZM516.622 165.828V143.094H530.96L530.945 145.656H519.546V153.077H529.813V155.624H519.53V163.203L531.259 163.234V165.828H516.622ZM543.633 166.143C542.522 166.143 541.469 166.012 540.473 165.75C539.477 165.477 538.571 165.073 537.753 164.539C536.946 164.004 536.275 163.344 535.741 162.558C535.217 161.761 534.887 160.839 534.75 159.791H537.8C537.989 160.65 538.361 161.373 538.917 161.96C539.483 162.547 540.18 162.988 541.008 163.281C541.846 163.575 542.763 163.721 543.759 163.721C544.723 163.721 545.609 163.569 546.416 163.265C547.234 162.961 547.889 162.521 548.382 161.945C548.874 161.358 549.12 160.655 549.12 159.838C549.12 158.937 548.827 158.213 548.24 157.668C547.653 157.113 546.746 156.667 545.52 156.332L540.835 155.121C539.776 154.859 538.838 154.492 538.021 154.021C537.213 153.539 536.579 152.91 536.118 152.134C535.657 151.348 535.426 150.373 535.426 149.21C535.426 147.92 535.783 146.799 536.495 145.845C537.208 144.881 538.173 144.137 539.388 143.613C540.615 143.078 541.998 142.811 543.539 142.811C545.321 142.811 546.82 143.12 548.036 143.738C549.262 144.357 550.19 145.169 550.818 146.175C551.447 147.181 551.762 148.256 551.762 149.398H548.775C548.68 148.361 548.376 147.543 547.863 146.946C547.349 146.338 546.71 145.903 545.945 145.641C545.179 145.368 544.346 145.232 543.445 145.232C541.82 145.232 540.589 145.604 539.75 146.348C538.922 147.082 538.508 147.957 538.508 148.974C538.508 149.907 538.807 150.64 539.404 151.175C540.002 151.709 540.882 152.124 542.045 152.417L546.605 153.596C547.957 153.911 549.031 154.367 549.828 154.964C550.635 155.561 551.212 156.258 551.557 157.055C551.914 157.841 552.092 158.695 552.092 159.618C552.092 160.876 551.741 161.997 551.039 162.982C550.336 163.968 549.351 164.743 548.083 165.309C546.825 165.865 545.342 166.143 543.633 166.143ZM556.588 165.828V143.094H570.927L570.911 145.656H559.513V153.077H569.779V155.624H559.497V163.203L571.226 163.234V165.828H556.588ZM581.358 165.828V145.766H574.016V143.094H591.216V145.766H584.282V165.828H581.358Z" fill="#B8926A"/>
<path d="M252.867 210.964L607.742 210.973" stroke="#8E7761" stroke-width="2.23902"/>
<g clip-path="url(#clip0_5039_5868)">
<path d="M392.42 330.154C391.242 330.19 390.099 330.655 389.243 331.478V325.861H385.78V326.505L386.637 326.648V339.527L385.78 339.67V340.314H389.243V339.777C389.992 340.278 390.849 340.528 391.741 340.492C394.74 340.492 396.453 338.525 396.453 335.127C396.417 332.157 394.74 330.154 392.42 330.154ZM391.42 339.598C390.599 339.562 389.85 339.276 389.207 338.74V332.336C389.742 332.05 390.349 331.871 390.956 331.835C392.634 331.835 393.669 333.302 393.669 335.627C393.669 338.096 392.848 339.598 391.42 339.598ZM404.306 330.333H407.197V331.048L406.376 331.192L402.378 340.922C401.486 343.14 400.629 345 398.737 345C398.166 345 397.631 344.928 397.06 344.821V342.639H397.631L398.024 343.497C398.273 343.676 398.559 343.784 398.845 343.748C400.022 343.748 400.808 341.959 401.307 340.779L401.415 340.528L397.381 331.192L396.596 331.013V330.297H401.022V331.013L400.165 331.192L402.771 337.309L405.198 331.156L404.306 331.013V330.333ZM420.725 326.291H425.437V327.006L424.473 327.149V339.491L425.437 339.634V340.349H420.725V339.634L421.725 339.491V333.875H415.692V339.491L416.62 339.634V340.349H411.98V339.634L412.908 339.491V327.149L411.98 327.006V326.326H416.62V327.042L415.692 327.185V332.444H421.725V327.185L420.725 327.042V326.291ZM430.898 339.527L431.791 339.67V340.314H427.472V339.67L428.364 339.527V331.084L427.472 330.941V330.297H430.934V339.527H430.898ZM428.221 327.257C428.185 326.684 428.435 326.183 428.935 325.861C429.399 325.575 430.006 325.539 430.47 325.826C430.934 326.112 431.255 326.613 431.219 327.185C431.255 327.614 431.112 328.008 430.827 328.33C430.541 328.652 430.149 328.831 429.72 328.831C429.292 328.831 428.899 328.687 428.614 328.365C428.328 328.079 428.185 327.65 428.221 327.257ZM437.145 339.527L438.037 339.67V340.314H433.718V339.67L434.575 339.527V326.648L433.718 326.505V325.861H437.18V339.527H437.145ZM444.998 339.205C445.462 339.24 445.926 339.205 446.354 339.097V339.777C445.319 340.171 444.248 340.385 443.177 340.421C441.178 340.421 440.714 339.491 440.714 337.774V331.263H438.894V330.333H440.786V328.258L443.284 327.507V330.369H445.604V331.299H443.284V337.201C443.284 338.704 443.605 339.205 444.998 339.205ZM452.101 330.047C450.673 329.939 449.245 330.476 448.246 331.514C447.211 332.551 446.711 333.946 446.782 335.413C446.568 336.844 447.032 338.31 448.067 339.312C449.102 340.349 450.53 340.814 451.958 340.6C453.386 340.707 454.778 340.206 455.777 339.205C456.812 338.203 457.348 336.808 457.276 335.413C457.455 333.982 456.955 332.551 455.956 331.514C454.921 330.476 453.529 329.939 452.101 330.047ZM451.994 339.813C450.53 339.813 449.602 338.489 449.602 335.341C449.602 332.122 450.53 330.834 451.994 330.834C453.493 330.834 454.421 332.229 454.421 335.341C454.421 338.561 453.564 339.813 451.994 339.813ZM468.699 339.527L469.591 339.67V340.314H465.272V339.67L466.129 339.527V333.875C466.129 332.3 465.558 331.585 464.38 331.585C463.63 331.692 462.916 331.979 462.345 332.408V339.527L463.237 339.67V340.314H458.883V339.67L459.775 339.527V331.156L458.883 331.013V330.297H462.345V331.692C463.309 330.762 464.594 330.19 465.915 330.118C467.842 330.118 468.734 331.263 468.734 333.517L468.699 339.527ZM475.98 326.505V328.974L476.266 329.009V329.224H475.052V329.009L475.338 328.974V326.756L474.231 329.224H474.124L473.089 326.791V328.974L473.375 329.009V329.224H472.518V329.009L472.804 328.974V326.47L472.518 326.398V326.183H473.589L474.41 328.115L475.266 326.183H476.266V326.398L475.98 326.505ZM469.555 326.255H472.268V326.863H472.054L471.983 326.541H471.233V329.009L471.554 329.045V329.26H470.269V329.045L470.591 329.009V326.541H469.841L469.805 326.863H469.555V326.255ZM346.731 311.051L347.98 312.268C346.302 314.199 343.839 315.273 341.269 315.237C339.021 315.237 336.843 314.343 335.237 312.697C333.631 311.051 332.81 308.869 332.881 306.58V306.544C332.81 304.255 333.666 302.037 335.273 300.391C336.879 298.746 339.056 297.815 341.341 297.851C343.804 297.78 346.159 298.746 347.873 300.534L346.588 301.929C345.231 300.463 343.34 299.64 341.341 299.64C339.556 299.676 337.878 300.391 336.629 301.715C335.415 303.002 334.773 304.755 334.844 306.544V306.58C334.773 308.368 335.415 310.121 336.629 311.445C337.843 312.768 339.556 313.52 341.341 313.555C343.375 313.448 345.338 312.59 346.731 311.051ZM371.431 306.472V306.508C371.503 309.62 369.861 312.482 367.219 314.056C364.578 315.63 361.258 315.63 358.617 314.092C355.94 312.554 354.333 309.656 354.369 306.58V306.544C354.298 303.432 355.94 300.57 358.581 298.996C361.223 297.422 364.542 297.422 367.183 298.96C369.825 300.498 371.467 303.36 371.431 306.472ZM369.468 306.508C369.539 304.684 368.861 302.931 367.648 301.643C366.398 300.32 364.685 299.604 362.864 299.568C361.08 299.568 359.366 300.32 358.117 301.607C356.868 302.895 356.225 304.648 356.297 306.472V306.508C356.225 308.333 356.903 310.086 358.117 311.373C359.366 312.697 361.08 313.412 362.864 313.448C364.649 313.448 366.363 312.697 367.612 311.409C368.861 310.121 369.504 308.368 369.432 306.544L369.468 306.508ZM381.14 298.102H379.248V314.915H390.563V313.162H381.14V298.102ZM400.237 298.102H398.345V314.915H409.66V313.162H400.237V298.102ZM419.369 307.295H428.507V305.578H419.333V299.854H429.542V298.137H417.441V314.951H429.685V313.234H419.333L419.369 307.295ZM445.497 313.448C443.713 313.412 442.035 312.661 440.786 311.338C439.572 310.014 438.929 308.297 439.001 306.508V306.472C438.929 304.684 439.572 302.931 440.786 301.643C441.999 300.355 443.713 299.604 445.497 299.568C447.496 299.568 449.388 300.427 450.744 301.858L452.029 300.463C450.316 298.674 447.96 297.708 445.497 297.78C443.213 297.78 441.035 298.71 439.429 300.32C437.823 301.929 436.966 304.183 437.038 306.472V306.508C436.966 308.798 437.823 310.98 439.394 312.625C440.964 314.271 443.141 315.165 445.426 315.165C447.996 315.201 450.423 314.128 452.136 312.196L450.887 310.98C449.495 312.59 447.532 313.448 445.497 313.448ZM458.526 299.854H464.13V314.915H466.057V299.854H471.661V298.102H458.526V299.854ZM479.693 314.915H481.584V298.102H479.693V314.915ZM507.142 306.472V306.508C507.142 309.585 505.535 312.411 502.894 313.949C500.253 315.487 497.004 315.487 494.363 313.985C491.722 312.447 490.08 309.62 490.08 306.58V306.544C490.08 301.822 493.863 297.959 498.575 297.959C503.287 297.887 507.106 301.715 507.142 306.472ZM505.178 306.508C505.25 304.684 504.572 302.931 503.358 301.643C502.109 300.32 500.395 299.604 498.611 299.568C496.826 299.568 495.113 300.32 493.863 301.607C492.614 302.895 491.972 304.648 492.043 306.472V306.508C491.972 308.333 492.65 310.086 493.863 311.373C495.113 312.697 496.826 313.412 498.611 313.448C500.395 313.448 502.109 312.697 503.358 311.409C504.607 310.121 505.25 308.368 505.178 306.544V306.508ZM526.774 298.102V311.588L516.244 298.102H514.459V314.915H516.315V301.142L527.131 314.915H528.63V298.102H526.774ZM364.114 278.892C360.687 285.331 353.941 289.266 346.695 289.087C332.917 289.087 323.672 278.82 323.672 264.475C323.672 251.489 331.775 241.867 343.518 239.863C336.807 242.01 333.06 251.168 333.06 264.475C333.06 279.142 339.021 287.584 349.015 287.584C355.226 287.62 360.973 284.293 364.114 278.892ZM362.793 255.89V240.543L360.223 243.834L359.759 243.512C356.439 241.33 352.584 240.078 348.622 239.899C354.69 241.044 359.652 246.66 362.793 255.89ZM392.455 287.584C383.996 287.584 379.641 283.327 379.641 274.313V245.337C379.462 243.548 380.533 241.867 382.211 241.258C382.496 241.151 382.818 241.08 383.175 240.972H368.361C368.718 241.08 369.075 241.151 369.325 241.258C371.003 241.867 372.074 243.548 371.895 245.337V274.313C371.895 283.435 378.784 289.087 390.314 289.087C398.559 289.087 406.697 284.723 407.447 275.064C406.626 282.648 400.915 287.584 392.455 287.584ZM498.861 264.511C498.861 250.917 502.787 242.153 509.747 239.899C504.75 240.686 500.146 243.011 496.54 246.553C491.65 251.203 489.045 257.75 489.366 264.511C489.187 271.308 491.829 277.854 496.612 282.648C500.288 286.153 504.964 288.407 509.997 289.087C502.93 286.94 498.861 277.854 498.861 264.511ZM530.629 246.553C527.024 243.011 522.419 240.686 517.422 239.899C524.382 242.153 528.309 250.881 528.309 264.511C528.309 277.854 524.204 286.94 517.172 289.123C522.205 288.443 526.881 286.189 530.557 282.683C535.376 277.89 537.982 271.343 537.803 264.547C538.125 257.75 535.483 251.203 530.629 246.553ZM481.442 241.294C481.727 241.187 482.048 241.115 482.405 241.008H467.592C467.949 241.115 468.306 241.187 468.556 241.294C470.234 241.902 471.304 243.584 471.126 245.372V283.649C471.304 285.438 470.234 287.119 468.556 287.727C468.235 287.835 467.913 287.942 467.592 288.014H482.405C482.048 287.906 481.691 287.835 481.442 287.727C479.764 287.119 478.693 285.438 478.872 283.649V245.372C478.729 243.584 479.764 241.902 481.442 241.294ZM457.99 286.118C456.634 286.118 454.849 285.474 454.064 282.433C453.671 280.931 453.386 279.464 453.1 277.926C452.743 275.994 452.279 274.026 451.744 271.844C449.852 264.225 437.609 264.475 437.609 264.475C437.609 264.475 454.278 262.794 454.278 251.311C454.278 248.878 453.136 240.972 438.43 240.972H437.038C442.071 242.01 444.998 246.195 444.998 252.67C444.998 259.36 441.464 263.724 435.182 264.475C442.106 265.047 443.498 271.343 444.212 277.496C445.212 285.474 447.924 289.087 453.529 289.087C457.562 289.516 461.239 286.833 462.131 282.827C461.524 284.687 459.882 286.01 457.99 286.118ZM429.292 283.649V241.008H418.012C418.369 241.115 418.691 241.187 418.976 241.294C420.654 241.902 421.725 243.584 421.546 245.372V283.649C421.725 285.438 420.654 287.119 418.976 287.727C418.655 287.835 418.334 287.942 418.012 288.014H432.826C432.469 287.906 432.148 287.835 431.862 287.727C430.149 287.119 429.113 285.438 429.292 283.649ZM405.02 242.153C406.662 243.333 407.268 246.052 407.411 250.667C407.554 246.052 408.196 243.333 409.838 242.153C410.659 241.652 411.552 241.258 412.48 241.008H402.378C403.306 241.223 404.199 241.616 405.02 242.153Z" fill="#8C755E"/>
</g>
<defs>
<clipPath id="clip0_5039_5868">
<rect width="214.344" height="105.05" fill="white" transform="translate(323.672 239.863)"/>
</clipPath>
</defs>
</svg>
